# xmcd CD database file
#
# Track frame offsets:
#	150
#	28200
#	68400
#	93187
#	122164
#	155314
#	186931
#
# Disc length: 2947 seconds
#
# Revision: 0
# Processed by: cddbd v1.5.2PL0 Copyright (c) Steve Scherf et al.
# Submitted via: CDex 1.77
#
DISCID=520b8107
DTITLE=Rossi Gang - Live at Church
DYEAR=2014
DGENRE=Jazz
TTITLE0=Franche's Blues
TTITLE1=C Jam From Greas Van
TTITLE2=Maybe Next Time
TTITLE3=Sheik of Araby
TTITLE4=When The Saint Go Marching In
TTITLE5=Stormy Weather
TTITLE6=Sunny Side Of The Street
EXTD=YEAR: 2014
EXTT0=
EXTT1=
EXTT2=
EXTT3=
EXTT4=
EXTT5=
EXTT6=
PLAYORDER=
